<svg width="40" height="36" viewBox="0 0 40 36" fill="none" xmlns="http://www.w3.org/2000/svg">
<path d="M33.8067 5.4931C31.3136 4.33091 28.6143 3.48737 25.8025 3C25.7531 3.0007 25.7059 3.02092 25.6713 3.05624C25.3339 3.67483 24.9402 4.48087 24.6778 5.09946C21.6954 4.64986 18.6625 4.64986 15.6801 5.09946C15.4177 4.46212 15.024 3.67483 14.6679 3.05624C14.6491 3.01875 14.5929 3 14.5367 3C11.7249 3.48737 9.04434 4.33091 6.5325 5.4931C6.51375 5.4931 6.49501 5.51185 6.47626 5.53059C1.37758 13.1599 -0.0283055 20.5829 0.665265 27.931C0.665265 27.9685 0.68401 28.006 0.7215 28.0248C4.09563 30.4991 7.33854 31.9987 10.544 32.9922C10.6002 33.011 10.6564 32.9922 10.6752 32.9547C11.425 31.9238 12.0998 30.8365 12.6809 29.6931C12.7184 29.6181 12.6809 29.5431 12.6059 29.5244C11.5374 29.112 10.5252 28.6246 9.53172 28.0623C9.45674 28.0248 9.45674 27.9123 9.51297 27.8561C9.71917 27.7061 9.92537 27.5374 10.1316 27.3874C10.1691 27.3499 10.2253 27.3499 10.2628 27.3687C16.7111 30.3117 23.6656 30.3117 30.0389 27.3687C30.0764 27.3499 30.1326 27.3499 30.1701 27.3874C30.3763 27.5561 30.5825 27.7061 30.7887 27.8748C30.8637 27.931 30.8637 28.0435 30.77 28.081C29.7952 28.6621 28.7642 29.1307 27.6958 29.5431C27.6208 29.5619 27.602 29.6556 27.6208 29.7118C28.2206 30.8553 28.8955 31.9425 29.6265 32.9735C29.6828 32.9922 29.739 33.011 29.7952 32.9922C33.0194 31.9987 36.2623 30.4991 39.6364 28.0248C39.6739 28.006 39.6927 27.9685 39.6927 27.931C40.5174 19.4395 38.3243 12.0726 33.8817 5.53059C33.8629 5.51185 33.8442 5.4931 33.8067 5.4931ZM13.6557 23.451C11.7249 23.451 10.1128 21.6702 10.1128 19.477C10.1128 17.2838 11.6874 15.503 13.6557 15.503C15.6426 15.503 17.2172 17.3025 17.1985 19.477C17.1985 21.6702 15.6239 23.451 13.6557 23.451ZM26.721 23.451C24.7903 23.451 23.1782 21.6702 23.1782 19.477C23.1782 17.2838 24.7528 15.503 26.721 15.503C28.708 15.503 30.2826 17.3025 30.2638 19.477C30.2638 21.6702 28.708 23.451 26.721 23.451Z" fill="white"/>
</svg>
