<svg width="36" height="36" viewBox="0 0 36 36" fill="none" xmlns="http://www.w3.org/2000/svg">
<path d="M18.0078 0C22.8154 0.00176896 27.3351 1.87532 30.7334 5.27637C34.1318 8.6775 36.0019 13.1989 36 18.0068C35.9959 27.9282 27.9209 36 18 36H17.9932C14.7632 35.9987 11.5947 35.1316 8.83106 33.4922L8.17383 33.1016L1.36133 34.8887L3.17969 28.249L2.75195 27.5674C0.950306 24.7028 -0.00134609 21.3919 1.42905e-06 17.9922C0.0039395 8.07142 8.07914 0 18.0078 0ZM9.74512 7.71289C9.38663 7.71289 8.80347 7.84969 8.31055 8.39551C7.8176 8.94134 6.42883 10.2604 6.42871 12.9434C6.42871 15.6257 8.35376 18.2174 8.62402 18.583C8.89289 18.947 12.4169 24.4539 17.8115 26.8154C19.0944 27.3771 20.0959 27.7127 20.877 27.9639C22.165 28.3789 23.3373 28.3201 24.2637 28.1797C25.2969 28.0232 27.4451 26.8613 27.8936 25.5879C28.3415 24.3142 28.3414 23.2224 28.207 22.9951C28.0725 22.7679 27.7143 22.6313 27.1768 22.3584C26.6389 22.0855 23.995 20.7671 23.502 20.585C23.0091 20.4031 22.6504 20.3118 22.292 20.8574C21.9337 21.403 20.9039 22.6309 20.5898 22.9951C20.2762 23.3588 19.9621 23.4046 19.4248 23.1318C18.887 22.859 17.1537 22.2832 15.0996 20.4258C13.5014 18.9805 12.4224 17.1958 12.1084 16.6494C11.7947 16.1036 12.0745 15.808 12.3438 15.5361C12.5857 15.2918 12.8815 14.8993 13.1504 14.5811C13.4192 14.2628 13.5092 14.0355 13.6885 13.6719C13.8677 13.308 13.778 12.9897 13.6436 12.7168C13.5091 12.4439 12.4336 9.76083 11.9854 8.66895C11.5488 7.60586 11.1055 7.74922 10.7754 7.73242C10.4622 7.71648 10.1034 7.71289 9.74512 7.71289Z" fill="white"/>
</svg>
